<?xml version="1.0" encoding="UTF-8" standalone="no"?>
<!-- Generator: Gravit.io -->

<svg
   xmlns:dc="http://purl.org/dc/elements/1.1/"
   xmlns:cc="http://creativecommons.org/ns#"
   xmlns:rdf="http://www.w3.org/1999/02/22-rdf-syntax-ns#"
   xmlns:svg="http://www.w3.org/2000/svg"
   xmlns="http://www.w3.org/2000/svg"
   xmlns:sodipodi="http://sodipodi.sourceforge.net/DTD/sodipodi-0.dtd"
   xmlns:inkscape="http://www.inkscape.org/namespaces/inkscape"
   style="isolation:isolate"
   viewBox="0 0 700 400"
   preserveAspectRatio="xMinYMin meet"
   width="700pt"
   height="400pt"
   version="1.1"
   id="svg137"
   sodipodi:docname="ssb_dashboard_final_v1.svg"
   inkscape:version="0.92.4 (5da689c313, 2019-01-14)">
  <metadata
     id="metadata143">
    <rdf:RDF>
      <cc:Work
         rdf:about="">
        <dc:format>image/svg+xml</dc:format>
        <dc:type
           rdf:resource="http://purl.org/dc/dcmitype/StillImage" />
      </cc:Work>
    </rdf:RDF>
  </metadata>
  <defs
     id="defs141" />
  <sodipodi:namedview
     pagecolor="#ffffff"
     bordercolor="#666666"
     borderopacity="1"
     objecttolerance="10"
     gridtolerance="10"
     guidetolerance="10"
     inkscape:pageopacity="0"
     inkscape:pageshadow="2"
     inkscape:window-width="2560"
     inkscape:window-height="1330"
     id="namedview139"
     showgrid="false"
     inkscape:zoom="1.251579"
     inkscape:cx="455.8803"
     inkscape:cy="326.04333"
     inkscape:window-x="-12"
     inkscape:window-y="-12"
     inkscape:window-maximized="1"
     inkscape:current-layer="g1083" />
  <circle
     vector-effect="non-scaling-stroke"
     cx="353.9577698398813"
     cy="290.30908203124966"
     r="92.5"
     fill="rgb(235,235,235)"
     id="circle2" />
  <circle
     vector-effect="non-scaling-stroke"
     cx="154.22888491994112"
     cy="112.45458984374991"
     r="92.49999999999997"
     fill="rgb(235,235,235)"
     id="circle4" />
  <circle
     vector-effect="non-scaling-stroke"
     cx="549.9577698398807"
     cy="110.69091796874993"
     r="92.5"
     fill="rgb(235,235,235)"
     id="circle6" />
  <g
     id="g47">
    <path
       d=" M 166.533 138.955 L 141.924 138.955 C 140.178 138.955 138.822 137.56 138.998 135.97 L 141.939 108.827 C 142.089 107.44 143.355 106.383 144.865 106.383 L 163.592 106.383 C 165.103 106.383 166.369 107.44 166.518 108.827 L 169.459 135.97 C 169.635 137.56 168.28 138.955 166.533 138.955 Z "
       fill="rgb(121,105,90)"
       id="path8" />
    <path
       d=" M 163.592 106.383 L 154.18 106.383 L 154.18 138.955 L 166.534 138.955 C 168.28 138.955 169.635 137.56 169.46 135.97 L 166.518 108.827 C 166.369 107.44 165.103 106.383 163.592 106.383 Z "
       fill="rgb(108,91,82)"
       id="path10" />
    <path
       d=" M 198.654 100.81 L 185.417 68.239 C 184.143 65.072 180.829 62.955 177.162 62.955 L 131.296 62.955 C 127.629 62.955 124.315 65.072 123.04 68.239 L 109.804 100.81 C 107.627 106.13 111.902 111.812 118.06 111.812 L 190.398 111.812 C 196.556 111.812 200.831 106.13 198.654 100.81 Z "
       fill="rgb(219,225,241)"
       id="path12" />
    <path
       d=" M 190.398 111.812 L 154.18 111.812 L 154.18 62.955 L 177.162 62.955 C 180.829 62.955 184.143 65.072 185.418 68.238 L 198.654 100.81 C 200.831 106.13 196.556 111.812 190.398 111.812 Z "
       fill="rgb(208,213,229)"
       id="path14" />
    <path
       d=" M 131.294 68.383 C 130.074 68.383 128.967 69.092 128.538 70.145 L 115.302 102.716 C 114.583 104.489 115.995 106.383 118.058 106.383 L 190.4 106.383 C 192.462 106.383 193.875 104.489 193.155 102.716 L 179.919 70.145 C 179.49 69.092 178.383 68.383 177.163 68.383 L 131.294 68.383 L 131.294 68.383 Z "
       fill="rgb(124,132,232)"
       id="path16" />
    <path
       d=" M 179.919 70.145 C 179.49 69.092 178.383 68.383 177.163 68.383 L 154.18 68.383 L 154.18 106.383 L 190.4 106.383 C 192.462 106.383 193.875 104.489 193.155 102.716 L 179.919 70.145 Z "
       fill="rgb(81,91,224)"
       id="path18" />
    <g
       id="g26">
      <path
         d=" M 192.165 95.526 L 116.292 95.526 C 114.668 95.526 113.351 94.311 113.351 92.812 C 113.351 91.312 114.668 90.098 116.292 90.098 L 192.165 90.098 C 193.789 90.098 195.107 91.312 195.107 92.812 C 195.107 94.311 193.789 95.526 192.165 95.526 Z "
         fill="rgb(219,225,241)"
         id="path20" />
      <path
         d=" M 185.653 79.24 L 122.805 79.24 C 121.181 79.24 119.863 78.025 119.863 76.526 C 119.863 75.027 121.181 73.812 122.805 73.812 L 185.652 73.812 C 187.276 73.812 188.594 75.027 188.594 76.526 C 188.594 78.025 187.276 79.24 185.653 79.24 Z "
         fill="rgb(219,225,241)"
         id="path22" />
      <path
         d=" M 138.987 111.812 C 138.864 111.812 138.742 111.805 138.617 111.79 C 137.006 111.605 135.863 110.248 136.064 108.761 L 141.947 65.332 C 142.148 63.844 143.626 62.795 145.231 62.976 C 146.842 63.161 147.985 64.518 147.784 66.006 L 141.901 109.434 C 141.715 110.807 140.448 111.812 138.987 111.812 Z "
         fill="rgb(219,225,241)"
         id="path24" />
    </g>
    <defs
       id="defs31">
      <filter
         id="fWjP41SUQ25mAiH26mIcHn7IrKwT1XDz"
         x="-200%"
         y="-200%"
         width="400%"
         height="400%"
         filterUnits="objectBoundingBox"
         color-interpolation-filters="sRGB">
        <feGaussianBlur
           stdDeviation="2.146804531419514"
           id="feGaussianBlur28" />
      </filter>
    </defs>
    <g
       filter="url(#fWjP41SUQ25mAiH26mIcHn7IrKwT1XDz)"
       id="g35">
      <path
         d=" M 169.471 111.812 C 168.01 111.812 166.742 110.807 166.556 109.434 L 160.674 66.006 C 160.473 64.518 161.616 63.161 163.226 62.976 C 164.833 62.796 166.31 63.844 166.511 65.332 L 172.393 108.761 C 172.594 110.248 171.451 111.605 169.841 111.79 C 169.716 111.805 169.594 111.812 169.471 111.812 Z "
         fill="rgb(208,213,229)"
         id="path33" />
    </g>
    <path
       d=" M 175.358 138.955 L 133.1 138.955 C 131.476 138.955 130.158 137.74 130.158 136.24 C 130.158 134.741 131.476 133.526 133.1 133.526 L 175.358 133.526 C 176.981 133.526 178.299 134.741 178.299 136.24 C 178.299 137.74 176.981 138.955 175.358 138.955 Z "
       fill="rgb(145,134,126)"
       id="path37" />
    <g
       id="g43">
      <path
         d=" M 185.653 73.812 L 154.18 73.812 L 154.18 79.24 L 185.653 79.24 C 187.276 79.24 188.594 78.026 188.594 76.526 C 188.594 75.027 187.276 73.812 185.653 73.812 Z "
         fill="rgb(208,213,229)"
         id="path39" />
      <path
         d=" M 192.165 90.098 L 154.18 90.098 L 154.18 95.526 L 192.165 95.526 C 193.789 95.526 195.107 94.311 195.107 92.812 C 195.107 91.312 193.789 90.098 192.165 90.098 Z "
         fill="rgb(208,213,229)"
         id="path41" />
    </g>
    <path
       d=" M 175.358 133.526 L 154.18 133.526 L 154.18 138.955 L 175.358 138.955 C 176.981 138.955 178.299 137.74 178.299 136.24 C 178.299 134.741 176.981 133.526 175.358 133.526 Z "
       fill="rgb(132,121,118)"
       id="path45" />
  </g>
  <g
     id="g69">
    <rect
       x="512.438"
       y="92.927"
       width="76.581"
       height="38.027"
       transform="matrix(1,0,0,1,0,0)"
       fill="rgb(160,212,104)"
       id="rect49" />
    <rect
       x="556.473"
       y="105.601"
       width="19.143"
       height="25.352"
       transform="matrix(1,0,0,1,0,0)"
       fill="rgb(230,233,237)"
       id="rect51" />
    <path
       d=" M 564.129 118.279 C 564.129 119.278 563.273 120.088 562.217 120.088 C 561.159 120.088 560.302 119.278 560.302 118.279 C 560.302 117.278 561.159 116.469 562.217 116.469 C 563.273 116.469 564.129 117.278 564.129 118.279 Z "
       fill="rgb(67,74,84)"
       id="path53" />
    <path
       d=" M 582.437 63.955 L 519.019 63.955 C 516.914 63.955 514.646 65.5 513.98 67.388 L 504.915 93.113 C 504.249 95.003 505.428 96.549 507.533 96.549 L 593.924 96.549 C 596.029 96.549 597.208 95.003 596.543 93.113 L 587.477 67.388 C 586.812 65.5 584.543 63.955 582.437 63.955 L 582.437 63.955 Z "
       fill="rgb(93,156,236)"
       id="path55" />
    <path
       d=" M 573.768 63.955 L 569.882 63.955 L 571.522 72.896 L 560.218 72.896 L 559.651 63.955 L 555.816 63.955 L 556.383 72.896 L 545.046 72.896 L 545.586 63.955 L 541.751 63.955 L 541.211 72.896 L 529.872 72.896 L 531.448 63.955 L 527.567 63.955 L 525.99 72.896 L 511.994 73.023 L 510.763 76.515 L 525.35 76.515 L 524.279 82.589 L 508.63 82.589 L 507.347 86.211 L 523.641 86.211 L 521.817 96.549 L 525.7 96.549 L 527.523 86.211 L 540.405 86.211 L 539.78 96.549 L 543.615 96.549 L 544.24 86.211 L 557.228 86.211 L 557.885 96.549 L 561.723 96.549 L 561.066 86.211 L 573.964 86.211 L 575.857 96.549 L 579.745 96.549 L 573.768 63.955 Z  M 540.624 82.589 L 528.162 82.589 L 529.233 76.515 L 540.992 76.515 L 540.624 82.589 Z  M 544.459 82.589 L 544.827 76.515 L 556.613 76.515 L 556.998 82.589 L 544.459 82.589 L 544.459 82.589 Z  M 560.836 82.589 L 560.448 76.515 L 572.184 76.515 L 573.302 82.589 L 560.836 82.589 L 560.836 82.589 Z "
       fill="rgb(74,137,220)"
       id="path57" />
    <path
       d=" M 558.387 130.954 L 558.387 107.413 L 573.7 107.413 L 573.7 130.954 L 577.53 130.954 L 577.53 103.791 L 554.558 103.791 L 554.558 130.954 L 558.387 130.954 Z "
       fill="rgb(140,193,83)"
       id="path59" />
    <rect
       x="526.198"
       y="105.6"
       width="17.886"
       height="13.808"
       transform="matrix(1,0,0,1,0,0)"
       fill="rgb(93,156,236)"
       id="rect61" />
    <g
       id="g67">
      <path
         d=" M 523.926 103.791 L 523.926 121.899 L 546.899 121.899 L 546.899 103.791 L 523.926 103.791 Z  M 543.071 118.279 L 527.755 118.279 L 527.755 107.413 L 543.071 107.413 L 543.071 118.279 L 543.071 118.279 Z "
         fill="rgb(230,233,237)"
         id="path63" />
      <rect
         x="533.499"
         y="105.6"
         width="3.83"
         height="13.808"
         transform="matrix(1,0,0,1,0,0)"
         fill="rgb(230,233,237)"
         id="rect65" />
    </g>
  </g>
  <text
     transform="translate(283.949,253.095)"
     style="font-style:normal;font-weight:700;font-size:20px;font-family:'Open Sans';fill:#000000;stroke:none"
     id="text_bv">10.91 V</text>
  <text
     transform="translate(364.756,253.095)"
     style="font-style:normal;font-weight:700;font-size:20px;font-family:'Open Sans';fill:#bd2e2e;stroke:none"
     id="text_ba">0.41 A</text>
  <text
     transform="translate(336.304,364.377)"
     style="font-style:normal;font-weight:700;font-size:20px;font-family:'Open Sans';fill:#4d9106;stroke:none"
     id="text_bc">67%</text>
  <text
     transform="translate(124.157,167.332)"
     style="font-style:normal;font-weight:700;font-size:20px;font-family:'Open Sans';fill:#000000;stroke:none"
     id="text_sv">13.4 V</text>
  <text
     transform="translate(514.949,161.332)"
     style="font-style:normal;font-weight:700;font-size:20px;font-family:'Open Sans';fill:#000000;stroke:none"
     id="text_lv">12.53 V</text>
  <text
     transform="translate(129.464,192.332)"
     style="font-style:normal;font-weight:700;font-size:20px;font-family:'Open Sans';fill:#bd2e2e;stroke:none"
     id="text_sa">1.2 A</text>
  <text
     transform="translate(525.964,185.568)"
     style="font-style:normal;font-weight:700;font-size:20px;font-family:'Open Sans';fill:#bd2e2e;stroke:none"
     id="text_la">2.3 A</text>
  <text
     transform="translate(124.488,52.332)"
     style="font-style:normal;font-weight:700;font-size:20px;font-family:'Open Sans';fill:#000000;stroke:none"
     id="text_sp">1.53 W</text>
  <text
     transform="translate(517.488,53.095)"
     style="font-style:normal;font-weight:700;font-size:20px;font-family:'Open Sans';fill:#000000;stroke:none"
     id="text_lp">16.5 W</text>
  <line
     x1="236.729"
     y1="108.955"
     x2="468.729"
     y2="108.955"
     vector-effect="non-scaling-stroke"
     stroke-width="6"
     stroke="rgb(189,46,46)"
     stroke-linejoin="miter"
     stroke-linecap="square"
     stroke-miterlimit="3"
     id="line89" />
  <line
     x1="354.729"
     y1="211"
     x2="354.729"
     y2="108.955"
     vector-effect="non-scaling-stroke"
     stroke-width="6"
     stroke="rgb(189,46,46)"
     stroke-linejoin="miter"
     stroke-linecap="square"
     stroke-miterlimit="3"
     id="line91" />
  <circle
     cx="266.22888"
     cy="109.07275"
     r="6.5"
     id="circle_s1"
     style="vector-effect:non-scaling-stroke;fill:#4080e6" />
  <circle
     cx="289.22888"
     cy="109.07275"
     r="6.5"
     id="circle_s2"
     style="vector-effect:non-scaling-stroke;fill:#4080e6" />
  <circle
     cx="313.22888"
     cy="109.07275"
     r="6.5"
     id="circle_s3"
     style="vector-effect:non-scaling-stroke;fill:#4080e6" />
  <circle
     cx="335.22888"
     cy="109.07275"
     r="6.5"
     id="circle_s4"
     style="vector-effect:non-scaling-stroke;fill:#4080e6" />
  <circle
     cx="374.22888"
     cy="108.95459"
     r="6.5"
     id="circle_l1"
     style="vector-effect:non-scaling-stroke;fill:#4080e6" />
  <circle
     cx="354.22888"
     cy="108.95459"
     r="6.5"
     id="circle_mid"
     style="vector-effect:non-scaling-stroke;fill:#4080e6" />
  <circle
     cx="354.22888"
     cy="129.95459"
     r="6.5"
     id="circle_b1"
     style="vector-effect:non-scaling-stroke;fill:#4080e6" />
  <circle
     cx="354.22888"
     cy="148.95459"
     r="6.5"
     id="circle_b2"
     style="vector-effect:non-scaling-stroke;fill:#4080e6" />
  <circle
     cx="354.22888"
     cy="169.95459"
     r="6.5"
     id="circle_b3"
     style="vector-effect:non-scaling-stroke;fill:#4080e6" />
  <circle
     cx="354.22888"
     cy="191.95459"
     r="6.5"
     id="circle_b4"
     style="vector-effect:non-scaling-stroke;fill:#4080e6" />
  <circle
     cx="397.22888"
     cy="108.95459"
     r="6.5"
     id="circle_l2"
     style="vector-effect:non-scaling-stroke;fill:#4080e6" />
  <circle
     cx="421.22888"
     cy="108.95459"
     r="6.5"
     id="circle_l3"
     style="vector-effect:non-scaling-stroke;fill:#4080e6" />
  <circle
     cx="443.22888"
     cy="108.95459"
     r="6.5"
     id="circle_l4"
     style="vector-effect:non-scaling-stroke;fill:#4080e6" />
  <g
     id="g135">
    <path
       d=" M 315.288 285.529 L 315.288 283.471 C 315.288 280.065 318.059 277.294 321.464 277.294 L 387.347 277.294 C 390.752 277.294 393.523 280.065 393.523 283.471 L 393.523 285.529 L 315.288 285.529 Z "
       fill="rgb(189,196,208)"
       id="path119" />
    <path
       d=" M 321.464 334.941 C 318.059 334.941 315.288 332.17 315.288 328.765 L 315.288 285.529 L 393.523 285.529 L 393.523 328.765 C 393.523 332.17 390.752 334.941 387.347 334.941 L 321.464 334.941 L 321.464 334.941 Z "
       fill="rgb(255,135,127)"
       id="path121" />
    <rect
       x="323.523"
       y="269.059"
       width="16.471"
       height="8.235"
       transform="matrix(1,0,0,1,0,0)"
       fill="rgb(111,176,182)"
       id="rect123" />
    <rect
       x="368.817"
       y="269.059"
       width="16.471"
       height="8.235"
       transform="matrix(1,0,0,1,0,0)"
       fill="rgb(255,135,127)"
       id="rect125" />
    <g
       id="g133">
      <path
         d=" M 387.347 275.235 L 387.347 271.118 C 387.347 268.843 385.503 267 383.229 267 L 370.876 267 C 368.602 267 366.758 268.843 366.758 271.118 L 366.758 275.235 L 342.052 275.235 L 342.052 271.118 C 342.052 268.843 340.209 267 337.935 267 L 325.582 267 C 323.307 267 321.464 268.843 321.464 271.118 L 321.464 275.235 C 316.924 275.235 313.229 278.929 313.229 283.471 L 313.229 328.765 C 313.229 333.305 316.924 337 321.464 337 L 387.347 337 C 391.887 337 395.582 333.305 395.582 328.765 L 395.582 283.471 C 395.582 278.929 391.887 275.235 387.347 275.235 Z  M 370.876 271.118 L 383.229 271.118 L 383.229 275.235 L 370.876 275.235 L 370.876 271.118 Z  M 325.582 271.118 L 337.935 271.118 L 337.935 275.235 L 325.582 275.235 L 325.582 271.118 Z  M 391.464 328.765 C 391.464 331.039 389.621 332.882 387.347 332.882 L 321.464 332.882 C 319.19 332.882 317.347 331.039 317.347 328.765 L 317.347 287.588 L 391.464 287.588 L 391.464 328.765 L 391.464 328.765 Z  M 317.347 283.471 C 317.347 281.196 319.19 279.353 321.464 279.353 L 387.347 279.353 C 389.621 279.353 391.464 281.196 391.464 283.471 L 317.347 283.471 Z "
         fill="rgb(87,58,50)"
         id="path127" />
      <path
         d=" M 374.994 318.471 L 379.111 318.471 L 379.111 312.294 L 385.288 312.294 L 385.288 308.176 L 379.111 308.176 L 379.111 302 L 374.994 302 L 374.994 308.176 L 368.817 308.176 L 368.817 312.294 L 374.994 312.294 L 374.994 318.471 Z "
         fill="rgb(87,58,50)"
         id="path129" />
      <rect
         x="323.523"
         y="308.176"
         width="16.471"
         height="4.118"
         transform="matrix(1,0,0,1,0,0)"
         fill="rgb(87,58,50)"
         id="rect131" />
    </g>
  </g>
  <text
     y="371.15482"
     x="140.29892"
     style="font-style:normal;font-weight:700;font-size:20px;font-family:'Open Sans';isolation:isolate;fill:#000000;stroke:none;stroke-width:1"
     id="text_temp">10</text>
  <g
     id="g1360"
     transform="matrix(0.16144896,0,0,0.16144896,107.66218,264.72901)">
    <path
       id="path1257"
       d="M 348.27,365.26 V 53.055 c 0,-0.009 -10e-4,-0.018 -10e-4,-0.027 V 0 H 295.215 V 0 H 242.16 v 53.055 312.201 c -19.247,15.97 -30.28,39.665 -29.9,65.044 0.322,21.451 8.881,41.72 24.1,57.076 15.222,15.358 35.416,24.094 56.863,24.6 0.674,0.016 1.345,0.023 2.017,0.023 21.799,-0.001 42.309,-8.341 57.943,-23.612 16.119,-15.745 24.997,-36.824 24.997,-59.354 -0.003,-24.863 -11.033,-48.087 -29.91,-63.773 z"
       style="fill:#edeef0"
       inkscape:connector-curvature="0" />
    <path
       id="path1259"
       d="M 348.27,365.26 V 53.055 c 0,-0.318 -0.019,-0.633 -0.024,-0.951 h 0.023 V 0 h -53.032 v 0 c -0.008,0 -0.016,0 -0.022,0 v 512 0 c 21.808,0.004 42.328,-8.336 57.967,-23.612 16.119,-15.745 24.997,-36.824 24.997,-59.354 -0.002,-24.864 -11.032,-48.088 -29.909,-63.774 z"
       style="fill:#dcdee2"
       inkscape:connector-curvature="0" />
    <polygon
       id="polygon1261"
       points="275.549,53.055 275.549,54.122 275.549,233.436 314.878,233.436 314.878,54.122 314.878,53.055 314.878,33.391 275.549,33.391 "
       style="fill:#61a2ef" />
    <polygon
       id="polygon1263"
       points="314.878,57.415 314.878,53.055 314.878,33.391 295.214,33.391 295.214,57.415 295.214,233.436 314.878,233.436 "
       style="fill:#528acf" />
    <path
       id="path1265"
       d="m 322.398,387.589 -7.521,-4.946 V 216.74 h -39.328 v 165.901 l -7.521,4.946 c -14.27,9.386 -22.637,25.166 -22.382,42.212 0.394,26.286 22.089,48.175 48.363,48.793 13.458,0.324 26.212,-4.688 35.841,-14.092 9.633,-9.409 14.938,-22.005 14.938,-35.467 -0.002,-16.73 -8.371,-32.224 -22.39,-41.444 z"
       style="fill:#f74d37"
       inkscape:connector-curvature="0" />
    <path
       id="path1267"
       d="m 344.786,429.034 c 0,-16.731 -8.37,-32.225 -22.388,-41.445 l -7.521,-4.946 V 216.74 h -19.664 v 261.853 c 13.011,0.004 25.295,-4.969 34.634,-14.091 9.634,-9.41 14.939,-22.005 14.939,-35.468 z"
       style="fill:#c43d2c"
       inkscape:connector-curvature="0" />
    <g
       id="g1289">
      <rect
         id="rect1269"
         height="11.13"
         width="50.369999"
         style="fill:#444242"
         y="339.07999"
         x="133.82001" />
      <rect
         id="rect1271"
         height="11.13"
         width="69.309998"
         style="fill:#444242"
         y="307.70999"
         x="133.82001" />
      <rect
         id="rect1273"
         height="11.13"
         width="50.369999"
         style="fill:#444242"
         y="276.35999"
         x="133.82001" />
      <rect
         id="rect1275"
         height="11.13"
         width="69.309998"
         style="fill:#444242"
         y="245"
         x="133.82001" />
      <rect
         id="rect1277"
         height="11.13"
         width="50.369999"
         style="fill:#444242"
         y="213.64999"
         x="133.82001" />
      <rect
         id="rect1279"
         height="11.13"
         width="69.309998"
         style="fill:#444242"
         y="182.28999"
         x="133.82001" />
      <rect
         id="rect1281"
         height="11.13"
         width="50.369999"
         style="fill:#444242"
         y="150.94"
         x="133.82001" />
      <rect
         id="rect1283"
         height="11.13"
         width="69.309998"
         style="fill:#444242"
         y="119.58"
         x="133.82001" />
      <rect
         id="rect1285"
         height="11.13"
         width="50.369999"
         style="fill:#444242"
         y="88.230003"
         x="133.82001" />
      <rect
         id="rect1287"
         height="11.13"
         width="69.309998"
         style="fill:#444242"
         y="56.875999"
         x="133.82001" />
    </g>
    <g
       id="g1291" />
    <g
       id="g1293" />
    <g
       id="g1295" />
    <g
       id="g1297" />
    <g
       id="g1299" />
    <g
       id="g1301" />
    <g
       id="g1303" />
    <g
       id="g1305" />
    <g
       id="g1307" />
    <g
       id="g1309" />
    <g
       id="g1311" />
    <g
       id="g1313" />
    <g
       id="g1315" />
    <g
       id="g1317" />
    <g
       id="g1319" />
  </g>
  <text
     y="296.89261"
     x="168.14928"
     style="font-style:normal;font-weight:700;font-size:20px;font-family:'Open Sans';isolation:isolate;fill:#000000;stroke:none;stroke-width:1"
     id="text_temp-9">°c</text>
  <g
     id="g1083"
     transform="matrix(0.15426816,0,0,0.15426816,512.81459,269.72203)">
    <path
       id="path983"
       d="m 256,94.62 c -72.753,0 -131.943,59.189 -131.943,131.943 0,50.314 28.716,96.217 73.593,118.363 v 30.926 c 0,4.355 3.53,7.885 7.885,7.885 h 100.928 c 4.355,0 7.885,-3.53 7.885,-7.885 V 344.926 C 359.225,322.779 387.941,276.875 387.941,226.563 387.943,153.809 328.753,94.62 256,94.62 Z"
       style="fill:#f7d04a"
       inkscape:connector-curvature="0" />
    <path
       id="path985"
       d="m 124.058,226.563 c 0,50.314 28.716,96.217 73.593,118.363 v 30.926 h 24.706 v -30.926 c -44.877,-22.147 -73.593,-68.051 -73.593,-118.363 0,-68.588 52.608,-125.11 119.589,-131.36 C 264.284,94.823 260.166,94.621 256,94.621 183.247,94.62 124.058,153.809 124.058,226.563 Z"
       style="fill:#f3b41b"
       inkscape:connector-curvature="0" />
    <path
       id="path987"
       d="m 281.294,418.798 c -4.355,0 -7.885,-3.53 -7.885,-7.885 v -154.02 h -34.818 v 154.021 c 0,4.355 -3.53,7.885 -7.885,7.885 -4.355,0 -7.885,-3.53 -7.885,-7.885 V 256.893 h -14.099 c -9.877,0 -18.547,-5.959 -22.085,-15.18 -3.538,-9.221 -1.081,-19.45 6.261,-26.057 l 6.213,-5.593 c 7.043,-6.337 16.794,-7.881 25.449,-4.027 8.655,3.855 14.031,12.135 14.031,21.609 v 13.478 h 34.818 v -13.478 c 0,-9.475 5.377,-17.754 14.031,-21.609 8.654,-3.855 18.406,-2.312 25.449,4.027 l 6.214,5.593 c 7.341,6.608 9.798,16.836 6.261,26.057 -3.539,9.221 -12.208,15.18 -22.085,15.18 H 289.18 v 154.021 c -0.001,4.354 -3.531,7.884 -7.886,7.884 z m 7.885,-177.675 h 14.099 c 7.109,0 10.589,-8.964 5.276,-13.746 l -6.214,-5.593 c -5.019,-4.518 -13.16,-0.851 -13.16,5.861 v 13.478 z m -74.367,-21.386 c -1.541,0 -3.386,0.458 -5.15,2.046 l -6.213,5.593 c -3.739,3.364 -2.542,7.498 -2.087,8.686 0.455,1.187 2.333,5.06 7.361,5.06 h 14.099 v -13.478 c -0.001,-4.401 -3.641,-7.907 -8.01,-7.907 z"
       style="fill:#eb6836"
       inkscape:connector-curvature="0" />
    <path
       id="path989"
       d="M 331.696,363.762 H 180.304 c -4.355,0 -7.885,3.53 -7.885,7.885 v 85.158 c 0,30.435 24.76,55.195 55.195,55.195 h 56.772 c 30.435,0 55.195,-24.76 55.195,-55.195 v -85.158 c 0,-4.355 -3.53,-7.885 -7.885,-7.885 z"
       style="fill:#62c9cc"
       inkscape:connector-curvature="0" />
    <path
       id="path991"
       d="m 339.581,421.585 v -15.77 H 203.433 v -42.053 h -23.129 c -4.355,0 -7.885,3.53 -7.885,7.885 0,0 0,69.014 0,77.197 0,5.286 -0.178,10.597 0.572,15.846 3.838,26.711 26.866,47.31 54.623,47.31 h 31.014 c -27.805,0 -50.797,-20.563 -54.625,-47.31 h 135.006 c 0.37,-2.577 0.572,-5.207 0.572,-7.885 V 448.92 H 203.433 v -27.335 z"
       style="fill:#50a9a9"
       inkscape:connector-curvature="0" />
    <circle
       id="circle993"
       r="29.437"
       cy="157.175"
       cx="291.745"
       style="fill:#fee7be" />
    <g
       id="g1013">
	
	
	
	
	
	
	
	
	<g
   id="g_bulb_glow">
  <path
     inkscape:connector-curvature="0"
     style="fill:#eb6836"
     d="m 256,59.926 c -4.355,0 -7.885,-3.53 -7.885,-7.885 V 7.885 C 248.115,3.53 251.645,0 256,0 c 4.355,0 7.885,3.53 7.885,7.885 v 44.156 c 0,4.355 -3.53,7.885 -7.885,7.885 z"
     id="path995" />
  <path
     inkscape:connector-curvature="0"
     style="fill:#eb6836"
     d="m 167.695,83.591 c -2.725,0 -5.375,-1.414 -6.836,-3.944 l -22.078,-38.24 c -2.177,-3.771 -0.885,-8.594 2.886,-10.771 3.771,-2.178 8.594,-0.885 10.771,2.886 l 22.078,38.24 c 2.972,5.147 -0.841,11.829 -6.821,11.829 z"
     id="path997" />
  <path
     inkscape:connector-curvature="0"
     style="fill:#eb6836"
     d="m 103.032,148.239 c -1.337,0 -2.694,-0.341 -3.935,-1.058 l -38.24,-22.078 c -3.771,-2.177 -5.063,-7 -2.886,-10.771 2.176,-3.771 6.999,-5.064 10.771,-2.886 l 38.24,22.078 c 3.771,2.177 5.063,7 2.886,10.771 -1.461,2.53 -4.111,3.944 -6.836,3.944 z"
     id="path999" />
  <path
     inkscape:connector-curvature="0"
     style="fill:#eb6836"
     d="M 79.376,236.55 H 35.22 c -4.355,0 -7.885,-3.53 -7.885,-7.885 0,-4.355 3.53,-7.885 7.885,-7.885 h 44.156 c 4.355,0 7.885,3.53 7.885,7.885 0,4.355 -3.531,7.885 -7.885,7.885 z"
     id="path1001" />
  <path
     inkscape:connector-curvature="0"
     style="fill:#eb6836"
     d="m 64.806,346.942 c -2.725,0 -5.375,-1.414 -6.836,-3.944 -2.177,-3.771 -0.885,-8.594 2.886,-10.771 l 38.24,-22.078 c 3.771,-2.177 8.594,-0.885 10.771,2.886 2.177,3.771 0.885,8.594 -2.886,10.771 l -38.24,22.078 c -1.241,0.717 -2.597,1.058 -3.935,1.058 z"
     id="path1003" />
  <path
     inkscape:connector-curvature="0"
     style="fill:#eb6836"
     d="m 447.194,346.942 c -1.337,0 -2.694,-0.341 -3.935,-1.058 l -38.24,-22.078 c -3.771,-2.177 -5.063,-7 -2.886,-10.771 2.177,-3.771 6.999,-5.064 10.771,-2.886 l 38.24,22.078 c 3.771,2.177 5.063,7 2.886,10.771 -1.461,2.529 -4.111,3.944 -6.836,3.944 z"
     id="path1005" />
  <path
     inkscape:connector-curvature="0"
     style="fill:#eb6836"
     d="m 476.78,236.55 h -44.156 c -4.355,0 -7.885,-3.53 -7.885,-7.885 0,-4.355 3.53,-7.885 7.885,-7.885 h 44.156 c 4.355,0 7.885,3.53 7.885,7.885 0,4.355 -3.53,7.885 -7.885,7.885 z"
     id="path1007" />
  <path
     inkscape:connector-curvature="0"
     style="fill:#eb6836"
     d="m 408.968,148.239 c -2.725,0 -5.375,-1.414 -6.836,-3.944 -2.177,-3.771 -0.885,-8.594 2.886,-10.771 l 38.24,-22.078 c 3.771,-2.177 8.594,-0.885 10.771,2.886 2.177,3.771 0.885,8.594 -2.886,10.771 l -38.24,22.078 c -1.241,0.718 -2.598,1.058 -3.935,1.058 z"
     id="path1009" />
  <path
     inkscape:connector-curvature="0"
     style="fill:#eb6836"
     d="m 344.305,83.591 c -5.98,0 -9.793,-6.681 -6.821,-11.829 l 22.078,-38.24 c 2.177,-3.771 7,-5.064 10.771,-2.886 3.771,2.177 5.063,7 2.886,10.771 l -22.078,38.24 c -1.461,2.53 -4.111,3.944 -6.836,3.944 z"
     id="path1011" />
</g>

</g>
    <g
       id="g1015">
</g>
    <g
       id="g1017">
</g>
    <g
       id="g1019">
</g>
    <g
       id="g1021">
</g>
    <g
       id="g1023">
</g>
    <g
       id="g1025">
</g>
    <g
       id="g1027">
</g>
    <g
       id="g1029">
</g>
    <g
       id="g1031">
</g>
    <g
       id="g1033">
</g>
    <g
       id="g1035">
</g>
    <g
       id="g1037">
</g>
    <g
       id="g1039">
</g>
    <g
       id="g1041">
</g>
    <g
       id="g1043">
</g>
  </g>
</svg>
